<svg width="1024" height="1024" viewBox="0 0 1024 1024" fill="none" xmlns="http://www.w3.org/2000/svg">
<g clip-path="url(#clip0_1704_2077)">
<rect width="1024" height="1024" rx="50" fill="#610BEF"/>
<path fill-rule="evenodd" clip-rule="evenodd" d="M165 512.5C165 321.133 320.133 166 511.5 166C702.867 166 858 321.133 858 512.5C858 703.867 702.867 859 511.5 859C320.133 859 165 703.867 165 512.5ZM667.426 616.45C667.426 635.587 651.913 651.1 632.776 651.1C613.64 651.1 598.126 635.587 598.126 616.45L598.126 373.9C636.4 373.9 667.426 404.927 667.426 443.2L667.426 616.45ZM546.15 547.15C546.15 566.286 530.637 581.8 511.5 581.8C492.364 581.8 476.85 566.286 476.85 547.15L476.85 339.25C476.85 320.113 492.364 304.6 511.5 304.6C530.637 304.6 546.15 320.113 546.15 339.25L546.15 547.15ZM390.225 651.1C409.361 651.1 424.875 635.587 424.875 616.45L424.875 373.9C386.601 373.9 355.575 404.927 355.575 443.2L355.575 616.45C355.575 635.587 371.088 651.1 390.225 651.1Z" fill="white"/>
<path fill-rule="evenodd" clip-rule="evenodd" d="M954.05 685.991C990.888 777.849 1095.22 822.451 1187.07 785.613C1200.2 780.35 1215.1 786.722 1220.36 799.845C1225.63 812.967 1219.26 827.871 1206.13 833.134C1088.03 880.497 953.892 823.152 906.529 705.048C901.266 691.926 907.638 677.022 920.761 671.759C933.883 666.497 948.787 672.868 954.05 685.991Z" fill="#FF84E5"/>
<circle cx="383" cy="886" r="16" fill="#00E5E5"/>
<path d="M49.6902 241.52C46.5701 240.7 43.6989 243.571 44.522 246.688L58.5959 299.99C59.419 303.107 63.319 304.132 65.6159 301.835L104.894 262.557C107.191 260.26 106.162 256.363 103.042 255.543L49.6902 241.52Z" fill="#FF84E5"/>
<rect x="842" y="66" width="64" height="64" rx="8" transform="rotate(30 842 66)" fill="#FFBD63"/>
</g>
<defs>
<clipPath id="clip0_1704_2077">
<rect width="1024" height="1024" rx="50" fill="white"/>
</clipPath>
</defs>
</svg>
